<svg width="139" height="48" viewBox="0 0 139 48" fill="none" xmlns="http://www.w3.org/2000/svg">
<path d="M52.1858 11.6629H56.0794L51.812 33H46.5789L42.2492 11.6629H46.0805L47.8872 21.2568C48.0741 22.3159 48.3233 23.9252 48.6348 26.0849C48.967 28.2446 49.1643 29.4386 49.2266 29.667C49.3097 29.2725 49.5069 27.9746 49.8184 25.7734C50.1299 23.5722 50.348 22.077 50.4726 21.2879L52.1858 11.6629ZM67.0427 33L66.0147 27.6735H61.2178L60.221 33H56.6389L61.062 11.6629H66.2639L70.656 33H67.0427ZM61.8096 24.4963H65.3918L63.5851 15.027L61.8096 24.4963ZM76.3789 24.9635V33H72.641V11.6629H78.9331C80.6151 11.6629 81.913 12.0782 82.8267 12.9088C83.7612 13.7187 84.2284 14.8816 84.2284 16.3975V20.042C84.2284 22.4508 83.3563 23.9668 81.6119 24.5897L84.976 33H80.8643L77.9052 24.9635H76.3789ZM76.3789 14.8712V21.9421H78.5593C79.2446 21.9421 79.7326 21.7967 80.0233 21.506C80.3348 21.1945 80.4906 20.6961 80.4906 20.0108V16.6779C80.4906 15.4734 79.8468 14.8712 78.5593 14.8712H76.3789ZM87.3334 11.6629H91.1024V33H87.3334V11.6629ZM104.668 11.6629V14.9335H100.712V33H96.9434V14.9335H92.9874V11.6629H104.668ZM105.593 16.3975C105.593 14.8401 106.112 13.6356 107.15 12.7842C108.188 11.9328 109.673 11.5071 111.604 11.5071C113.556 11.5071 115.072 11.7044 116.152 12.099V15.6811C114.948 15.2035 113.525 14.9647 111.885 14.9647C110.244 14.9647 109.424 15.5877 109.424 16.8336V17.6746C109.424 18.2976 109.538 18.7856 109.767 19.1387C109.995 19.4709 110.441 19.8135 111.106 20.1666L114.688 22.1913C116.37 23.105 117.211 24.4963 117.211 26.3652V28.203C117.211 29.7813 116.64 31.0065 115.498 31.8786C114.356 32.73 112.726 33.1557 110.608 33.1557C108.489 33.1557 106.901 32.9273 105.842 32.4705V28.8572C107.171 29.4179 108.676 29.6982 110.358 29.6982C112.414 29.6982 113.442 29.0544 113.442 27.767V26.9571C113.442 26.4172 113.328 26.0018 113.1 25.7111C112.892 25.3996 112.497 25.0881 111.916 24.7766L108.489 22.9077C106.558 21.8486 105.593 20.3223 105.593 18.3288V16.3975ZM125.137 16.5844C125.137 15.0062 125.698 13.7706 126.819 12.8777C127.961 11.964 129.498 11.5071 131.429 11.5071C133.36 11.5071 134.887 11.694 136.008 12.0678V15.6188C134.741 15.1619 133.371 14.9335 131.896 14.9335C129.903 14.9335 128.906 15.6084 128.906 16.9582V27.8915C128.906 29.1583 129.737 29.7916 131.398 29.7916C132.125 29.7916 132.706 29.6567 133.142 29.3867V21.9109H136.818V31.8786C135.198 32.73 133.381 33.1557 131.367 33.1557C129.352 33.1557 127.805 32.7404 126.726 31.9098C125.666 31.0584 125.137 29.8332 125.137 28.2342V16.5844Z" fill="white"/>
<rect y="6" width="35" height="35" rx="2" fill="#0788FF"/>
<path fill-rule="evenodd" clip-rule="evenodd" d="M29.0002 15.0749L17.7607 15.0136L17.7601 15.0344C16.0383 14.9815 14.3414 15.4549 12.8956 16.3913C11.4498 17.3278 10.3239 18.6829 9.66815 20.2757C9.01239 21.8686 8.85791 23.6236 9.22533 25.3065C9.59274 26.9894 10.4646 28.5203 11.7245 29.695C12.9845 30.8696 14.5727 31.6321 16.2772 31.8808C17.9817 32.1295 19.7216 31.8526 21.2646 31.0869C22.8077 30.3212 24.0806 29.1033 24.9136 27.5954C25.4178 26.6827 25.7463 25.6901 25.8886 24.6685H22.8534L24.5138 21.8397H29.0031L28.9761 22.759C29.1175 24.9482 28.6297 27.1355 27.5661 29.0608C26.4352 31.1081 24.7068 32.7619 22.6116 33.8015C20.5165 34.8411 18.1541 35.2172 15.8397 34.8795C13.5253 34.5418 11.3689 33.5065 9.65808 31.9115C7.94731 30.3166 6.76352 28.238 6.26464 25.9529C5.76576 23.6678 5.97552 21.2849 6.86591 19.1221C7.75631 16.9593 9.28502 15.1194 11.2481 13.8479C13.1296 12.6292 15.3243 11.9881 17.5617 12.0002L17.5617 12H29.0002V15.0749Z" fill="white"/>
<path d="M17.5602 23.6222L14.1778 17.8414L12.1484 19.9938L17.5602 29.2184L23.1565 19.5633H28.9987V16.9189H21.4345L17.5602 23.6222Z" fill="white"/>
</svg>
