<svg width="35" height="35" viewBox="0 0 35 35" fill="none" xmlns="http://www.w3.org/2000/svg">
<rect width="35" height="35" rx="17.5" fill="white"/>
<path fill-rule="evenodd" clip-rule="evenodd" d="M16.5571 8H27.0009V10.8075L16.7381 10.7516L16.7375 10.7706C15.1654 10.7223 13.616 11.1544 12.296 12.0095C10.9759 12.8645 9.94792 14.1017 9.34918 15.5561C8.75044 17.0105 8.60939 18.6128 8.94486 20.1494C9.28033 21.686 10.0764 23.0838 11.2268 24.1563C12.3772 25.2288 13.8272 25.925 15.3835 26.1521C16.9399 26.3791 18.5284 26.1263 19.9373 25.4272C21.3462 24.7281 22.5084 23.616 23.2689 22.2393C23.7293 21.406 24.0292 20.4997 24.1591 19.5671H21.3862L22.9023 16.9842H27.0012L26.977 17.806C27.1098 19.8107 26.6648 21.8142 25.6908 23.5773C24.6582 25.4465 23.0801 26.9565 21.1672 27.9057C19.2542 28.8549 17.0972 29.1983 14.9841 28.89C12.8709 28.5817 10.902 27.6363 9.33999 26.1801C7.77798 24.7239 6.69713 22.826 6.24163 20.7396C5.78613 18.6532 5.97764 16.4775 6.79062 14.5028C7.60359 12.528 8.99937 10.8481 10.7918 9.68717C12.5098 8.57435 14.514 7.98903 16.5571 8.00016L16.5571 8Z" fill="#0788FF"/>
<path d="M16.5545 18.6115L13.4662 13.3335L11.6133 15.2987L16.5545 23.7212L21.6641 14.9056H26.9983V12.4912H20.0919L16.5545 18.6115Z" fill="#0788FF"/>
</svg>
